<?xml version="1.0" encoding="UTF-8" standalone="no"?>
<svg
   xmlns:dc="http://purl.org/dc/elements/1.1/"
   xmlns:cc="http://creativecommons.org/ns#"
   xmlns:rdf="http://www.w3.org/1999/02/22-rdf-syntax-ns#"
   xmlns:svg="http://www.w3.org/2000/svg"
   xmlns="http://www.w3.org/2000/svg"
   xmlns:xlink="http://www.w3.org/1999/xlink"
   version="1.1"
   width="24"
   height="24"
   id="svg2">
  <defs
     id="defs4">
    <linearGradient
       id="linearGradient3895">
      <stop
         id="stop3897"
         style="stop-color:#000000;stop-opacity:1"
         offset="0" />
      <stop
         id="stop3899"
         style="stop-color:#000000;stop-opacity:0"
         offset="1" />
    </linearGradient>
    <linearGradient
       id="linearGradient3831">
      <stop
         id="stop3833"
         style="stop-color:#ffeca9;stop-opacity:1"
         offset="0" />
      <stop
         id="stop3839"
         style="stop-color:#ffd543;stop-opacity:1"
         offset="1" />
    </linearGradient>
    <linearGradient
       id="linearGradient5159">
      <stop
         id="stop5161"
         style="stop-color:#ffffff;stop-opacity:1"
         offset="0" />
      <stop
         id="stop5167"
         style="stop-color:#311a14;stop-opacity:1"
         offset="0.50000215" />
      <stop
         id="stop5163"
         style="stop-color:#000000;stop-opacity:1"
         offset="1" />
    </linearGradient>
    <linearGradient
       id="linearGradient5137">
      <stop
         id="stop5139"
         style="stop-color:#ffffff;stop-opacity:1"
         offset="0" />
      <stop
         id="stop5141"
         style="stop-color:#ffffff;stop-opacity:0"
         offset="1" />
    </linearGradient>
    <linearGradient
       id="linearGradient4975">
      <stop
         id="stop4977"
         style="stop-color:#ffffff;stop-opacity:0.2882883"
         offset="0" />
      <stop
         id="stop4985"
         style="stop-color:#729fcf;stop-opacity:0.7927928"
         offset="1" />
    </linearGradient>
    <linearGradient
       id="linearGradient4967">
      <stop
         id="stop4969"
         style="stop-color:#729fcf;stop-opacity:1"
         offset="0" />
      <stop
         id="stop4971"
         style="stop-color:#3465a4;stop-opacity:1"
         offset="1" />
    </linearGradient>
    <radialGradient
       cx="25"
       cy="1029.3622"
       r="15.5"
       fx="25"
       fy="1029.3622"
       id="radialGradient4981-0"
       xlink:href="#linearGradient4975-1"
       gradientUnits="userSpaceOnUse"
       gradientTransform="matrix(1,0,0,1.3225806,0,-332.05232)" />
    <linearGradient
       id="linearGradient4975-1">
      <stop
         id="stop4977-0"
         style="stop-color:#ffffff;stop-opacity:0.2882883"
         offset="0" />
      <stop
         id="stop4985-1"
         style="stop-color:#729fcf;stop-opacity:0.7927928"
         offset="1" />
    </linearGradient>
    <linearGradient
       x1="7"
       y1="1006.3622"
       x2="35"
       y2="1049.3622"
       id="linearGradient4973-8"
       xlink:href="#linearGradient4967-6"
       gradientUnits="userSpaceOnUse" />
    <linearGradient
       id="linearGradient4967-6">
      <stop
         id="stop4969-4"
         style="stop-color:#729fcf;stop-opacity:1"
         offset="0" />
      <stop
         id="stop4971-7"
         style="stop-color:#3465a4;stop-opacity:1"
         offset="1" />
    </linearGradient>
    <radialGradient
       cx="25"
       cy="1029.3622"
       r="15.5"
       fx="25"
       fy="1029.3622"
       id="radialGradient5133"
       xlink:href="#linearGradient4975"
       gradientUnits="userSpaceOnUse"
       gradientTransform="matrix(0.76881545,0,0,1.0168204,5.0544698,-23.289875)" />
    <linearGradient
       x1="7"
       y1="1006.3622"
       x2="35"
       y2="1049.3622"
       id="linearGradient5135"
       xlink:href="#linearGradient4967"
       gradientUnits="userSpaceOnUse"
       gradientTransform="matrix(0.76881545,0,0,0.76881545,5.0544698,231.99709)" />
    <linearGradient
       x1="5"
       y1="1007.3622"
       x2="50"
       y2="1047.3622"
       id="linearGradient5143"
       xlink:href="#linearGradient5137"
       gradientUnits="userSpaceOnUse"
       gradientTransform="matrix(0.84274163,0,0,0.84274163,6.5772817,159.55212)" />
    <linearGradient
       x1="24"
       y1="1025.8131"
       x2="21"
       y2="1035.3622"
       id="linearGradient5165"
       xlink:href="#linearGradient5159"
       gradientUnits="userSpaceOnUse"
       gradientTransform="matrix(0.84274163,0,0,0.84274163,6.7969659,160.76086)" />
    <linearGradient
       x1="24.464285"
       y1="1025.8131"
       x2="21"
       y2="1035.3622"
       id="linearGradient5171"
       xlink:href="#linearGradient5159"
       gradientUnits="userSpaceOnUse"
       gradientTransform="matrix(-0.84274163,0,0,0.84274163,42.044869,160.79337)" />
    <linearGradient
       x1="20.467323"
       y1="1035.7418"
       x2="23"
       y2="1035.7102"
       id="linearGradient5183"
       xlink:href="#linearGradient5137"
       gradientUnits="userSpaceOnUse"
       gradientTransform="matrix(0.84274163,0,0,0.84274163,6.7969659,160.76086)"
       spreadMethod="reflect" />
    <radialGradient
       cx="25"
       cy="1029.3622"
       r="15.5"
       fx="25"
       fy="1029.3622"
       id="radialGradient5133-2"
       xlink:href="#linearGradient4975-15"
       gradientUnits="userSpaceOnUse"
       gradientTransform="matrix(0.91227895,0,0,1.2065624,-2.0676517,-218.39521)" />
    <linearGradient
       id="linearGradient4975-15">
      <stop
         id="stop4977-4"
         style="stop-color:#ffffff;stop-opacity:0.2882883"
         offset="0" />
      <stop
         id="stop4985-5"
         style="stop-color:#729fcf;stop-opacity:0.7927928"
         offset="1" />
    </linearGradient>
    <linearGradient
       x1="7"
       y1="1006.3622"
       x2="35"
       y2="1049.3622"
       id="linearGradient5135-5"
       xlink:href="#linearGradient4967-67"
       gradientUnits="userSpaceOnUse"
       gradientTransform="matrix(0.91227895,0,0,0.91227895,-2.0676517,84.529136)" />
    <linearGradient
       id="linearGradient4967-67">
      <stop
         id="stop4969-7"
         style="stop-color:#729fcf;stop-opacity:1"
         offset="0" />
      <stop
         id="stop4971-1"
         style="stop-color:#3465a4;stop-opacity:1"
         offset="1" />
    </linearGradient>
    <linearGradient
       x1="7"
       y1="1006.3622"
       x2="35"
       y2="1049.3622"
       id="linearGradient5206"
       xlink:href="#linearGradient4967-67"
       gradientUnits="userSpaceOnUse"
       gradientTransform="matrix(0.76881545,0,0,0.76881545,5.0544698,231.99712)" />
    <linearGradient
       x1="20.600697"
       y1="1045.121"
       x2="25.654892"
       y2="1045.0579"
       id="linearGradient3837"
       xlink:href="#linearGradient3831"
       gradientUnits="userSpaceOnUse"
       gradientTransform="matrix(0.79272829,0,0,0.79272829,7.8352554,213.04033)"
       spreadMethod="reflect" />
    <radialGradient
       cx="20.696428"
       cy="44.5625"
       r="12.696428"
       fx="20.696428"
       fy="44.5625"
       id="radialGradient3901"
       xlink:href="#linearGradient3895"
       gradientUnits="userSpaceOnUse"
       gradientTransform="matrix(1,0,0,0.22151899,0,34.69106)" />
    <radialGradient
       cx="20.696428"
       cy="44.5625"
       r="12.696428"
       fx="20.696428"
       fy="44.5625"
       id="radialGradient3168"
       xlink:href="#linearGradient3895"
       gradientUnits="userSpaceOnUse"
       gradientTransform="matrix(1,0,0,0.22151899,0,34.69106)" />
    <linearGradient
       x1="20.600697"
       y1="1045.121"
       x2="25.654892"
       y2="1045.0579"
       id="linearGradient3170"
       xlink:href="#linearGradient3831"
       gradientUnits="userSpaceOnUse"
       gradientTransform="matrix(0.79272829,0,0,0.79272829,7.8352554,213.04033)"
       spreadMethod="reflect" />
    <linearGradient
       x1="7"
       y1="1006.3622"
       x2="35"
       y2="1049.3622"
       id="linearGradient3172"
       xlink:href="#linearGradient4967-67"
       gradientUnits="userSpaceOnUse"
       gradientTransform="matrix(0.76881545,0,0,0.76881545,5.0544698,231.99712)" />
    <radialGradient
       cx="25"
       cy="1029.3622"
       r="15.5"
       fx="25"
       fy="1029.3622"
       id="radialGradient3174"
       xlink:href="#linearGradient4975"
       gradientUnits="userSpaceOnUse"
       gradientTransform="matrix(0.76881545,0,0,1.0168204,5.0544698,-23.289875)" />
    <linearGradient
       x1="7"
       y1="1006.3622"
       x2="35"
       y2="1049.3622"
       id="linearGradient3176"
       xlink:href="#linearGradient4967"
       gradientUnits="userSpaceOnUse"
       gradientTransform="matrix(0.76881545,0,0,0.76881545,5.0544698,231.99709)" />
    <linearGradient
       x1="5"
       y1="1007.3622"
       x2="50"
       y2="1047.3622"
       id="linearGradient3178"
       xlink:href="#linearGradient5137"
       gradientUnits="userSpaceOnUse"
       gradientTransform="matrix(0.84274163,0,0,0.84274163,6.5772817,159.55212)" />
    <linearGradient
       x1="24"
       y1="1025.8131"
       x2="21"
       y2="1035.3622"
       id="linearGradient3180"
       xlink:href="#linearGradient5159"
       gradientUnits="userSpaceOnUse"
       gradientTransform="matrix(0.84274163,0,0,0.84274163,6.7969659,160.76086)" />
    <linearGradient
       x1="24.464285"
       y1="1025.8131"
       x2="21"
       y2="1035.3622"
       id="linearGradient3182"
       xlink:href="#linearGradient5159"
       gradientUnits="userSpaceOnUse"
       gradientTransform="matrix(-0.84274163,0,0,0.84274163,42.044869,160.79337)" />
    <linearGradient
       x1="20.467323"
       y1="1035.7418"
       x2="23"
       y2="1035.7102"
       id="linearGradient3184"
       xlink:href="#linearGradient5137"
       gradientUnits="userSpaceOnUse"
       gradientTransform="matrix(0.84274163,0,0,0.84274163,6.7969659,160.76086)"
       spreadMethod="reflect" />
    <filter
       style="color-interpolation-filters:sRGB;"
       id="filter4202">
      <feColorMatrix
         values="0.21 0.72 0.072 0 0 0.21 0.72 0.072 0 0 0.21 0.72 0.072 0 0 0 0 0 1 0 "
         id="feColorMatrix4204" />
    </filter>
  </defs>
  <g
     transform="matrix(1.2649108,0,0,1.2649108,-2.9649577,-2.4774132)"
     id="g1800">
    <path
       style="fill:#8c8c8c;fill-opacity:1;stroke:#000000;stroke-width:0.7;stroke-linecap:round;stroke-linejoin:round;stroke-miterlimit:4;stroke-dasharray:none;stroke-opacity:1;filter:url(#filter4202)"
       id="path3847"
       d="m 21.434175,1046.3429 5.871511,-0.032 c -2.296525,2.7617 -4.16259,2.1569 -5.871511,0.032 z"
       transform="matrix(0.55132453,0,0,0.46390692,-1.5073514,-465.44462)" />
    <path
       style="fill:none;stroke:#d59600;stroke-width:0.842742;stroke-linecap:butt;stroke-linejoin:round;stroke-miterlimit:4;stroke-opacity:1;filter:url(#filter4202)"
       id="rect3040"
       d="m 19.294554,1037.9693 c 3.543205,-2.6067 6.821449,-2.2105 9.939607,0 0.691679,1.0641 1.170535,1.7333 -0.212824,2.159 2.341069,1.7178 0.212824,2.8198 0.212824,2.8198 1.489771,0.9045 0,2.4141 0,2.4141 -3.454616,2.1111 -4.739621,2.2681 -7.995619,1.2237 -0.638473,-0.4256 -3.686744,-1.6751 -1.943988,-2.8396 -0.904503,-0.4257 -1.330152,-2.326 0.478855,-2.6983 -1.892919,-1.7153 -1.436565,-1.7486 -0.478855,-3.0787 z"
       transform="matrix(0.55132453,0,0,0.46390692,-1.5073514,-465.44462)" />
    <path
       style="fill:url(#linearGradient3170);fill-opacity:1;stroke:none;filter:url(#filter4202)"
       id="rect3040-1"
       d="m 19.591162,1038.1899 c 3.33293,-2.4519 6.416622,-2.0793 9.349731,0 0.650632,1.001 1.101068,1.6306 -0.200194,2.0309 2.202136,1.6158 0.200194,2.6525 0.200194,2.6525 1.401359,0.8508 0,2.2709 0,2.2709 -3.249598,1.9859 -4.458343,2.1335 -7.521111,1.1511 -0.600583,-0.4004 -3.467951,-1.5757 -1.82862,-2.6713 -0.850825,-0.4003 -1.251214,-2.1877 0.450436,-2.5381 -1.780582,-1.6134 -1.351311,-1.6447 -0.450436,-2.896 z"
       transform="matrix(0.55132453,0,0,0.46390692,-1.5073514,-465.44462)" />
    <path
       style="opacity:0.26;fill:#ffc803;fill-opacity:1;stroke:url(#linearGradient3172);stroke-width:0.768815px;stroke-linecap:butt;stroke-linejoin:miter;stroke-opacity:1;filter:url(#filter4202)"
       id="path4964-5"
       d="m 24.274856,1038.7629 c -1.895377,-0.035 -3.680313,-0.067 -4.612893,-0.7687 -0.932579,-0.7022 0.0728,-2.0027 -0.768815,-3.8441 -0.841606,-1.8414 -1.802912,-5.0179 -3.36861,-7.7567 -1.565697,-2.7388 -2.781914,-3.8372 -2.781914,-8.3885 0,-4.5512 5.163157,-9.9946 11.532232,-9.9946 6.369075,0 11.532231,5.4375 11.532231,9.9946 0,4.5572 -1.229381,5.4466 -3.170418,8.7836 -1.941037,3.3371 -2.248248,5.7705 -2.980105,7.3616 -0.731856,1.591 -0.02363,3.1746 -0.768815,3.8441 -0.745185,0.6694 -3.132051,0.7208 -4.612893,0.7687 z"
       transform="matrix(0.55132453,0,0,0.46390692,-1.5073514,-465.44462)" />
    <path
       style="fill:url(#radialGradient3174);fill-opacity:1;stroke:url(#linearGradient3176);stroke-width:0.768815px;stroke-linecap:butt;stroke-linejoin:miter;stroke-opacity:1;filter:url(#filter4202)"
       id="path4964"
       d="m 24.328063,1039.162 c -1.895377,-0.035 -3.73352,-0.4656 -4.6661,-1.1678 -0.932579,-0.7022 0.0728,-2.0027 -0.768815,-3.8441 -0.841606,-1.8414 -1.802912,-5.0179 -3.36861,-7.7567 -1.565697,-2.7388 -2.781914,-3.8372 -2.781914,-8.3885 0,-4.5512 5.163157,-9.9946 11.532232,-9.9946 6.369075,0 11.532231,5.4375 11.532231,9.9946 0,4.5572 -1.229381,5.4466 -3.170418,8.7836 -1.941037,3.3371 -2.248248,5.7705 -2.980105,7.3616 -0.731856,1.591 -0.02363,3.1746 -0.768815,3.8441 -0.745185,0.6694 -3.078845,1.1199 -4.559686,1.1678 z"
       transform="matrix(0.55132453,0,0,0.46390692,-1.5073514,-465.44462)" />
    <path
       style="opacity:0.75;fill:none;stroke:url(#linearGradient3178);stroke-width:0.717561px;stroke-linecap:butt;stroke-linejoin:miter;stroke-opacity:1;filter:url(#filter4202)"
       id="path4964-4"
       d="m 24.274856,1037.7378 c -1.769017,-0.032 -3.434959,-0.062 -4.305367,-0.7176 -0.870408,-0.6552 0.06794,-1.8691 -0.71756,-3.5876 -0.7855,-1.7187 -1.68272,-4.6834 -3.144036,-7.2396 -1.461318,-2.5563 -2.596453,-3.5816 -2.596453,-7.8292 0,-4.2479 4.818946,-9.3284 10.763416,-9.3284 5.94447,0 10.763416,5.0749 10.763416,9.3284 0,4.2532 -1.147423,5.0835 -2.959057,8.198 -1.811635,3.1145 -2.098365,5.3858 -2.781432,6.8708 -0.683066,1.4848 -0.02206,2.9629 -0.71756,3.5876 -0.695505,0.6249 -2.923247,0.6729 -4.305367,0.7176 z"
       transform="matrix(0.55132453,0,0,0.46390692,-1.5073514,-465.44462)" />
    <path
       style="fill:none;stroke:url(#linearGradient3180);stroke-width:0.842742px;stroke-linecap:round;stroke-linejoin:round;stroke-opacity:1;filter:url(#filter4202)"
       id="path5147"
       d="m 27.439858,1023.6248 -1.685483,5.8992"
       transform="matrix(0.55132453,0,0,0.46390692,-1.5073514,-465.44462)" />
    <path
       style="fill:none;stroke:url(#linearGradient3182);stroke-width:0.842742px;stroke-linecap:round;stroke-linejoin:round;stroke-opacity:1;filter:url(#filter4202)"
       id="path5169"
       d="m 21.401977,1023.6577 1.685484,5.8992"
       transform="matrix(0.55132453,0,0,0.46390692,-1.5073514,-465.44462)" />
    <path
       style="fill:none;stroke:#ffffff;stroke-width:0.674193;stroke-linecap:round;stroke-linejoin:round;stroke-miterlimit:4;stroke-dasharray:none;stroke-opacity:0.941176;filter:url(#filter4202)"
       id="path5173"
       d="m 27.357605,1023.6272 c -0.813978,0.9901 -1.554686,1.4672 -2.020323,0.019 -0.561828,1.0544 -1.123655,1.6955 -1.685483,-0.075 -1.559358,2.4362 -1.550745,0.2469 -2.219722,0.056 v 0"
       transform="matrix(0.55132453,0,0,0.46390692,-1.5073514,-465.44462)" />
    <path
       style="fill:url(#linearGradient3184);fill-opacity:1;stroke:#d7d3ce;stroke-width:0.842742px;stroke-linecap:round;stroke-linejoin:round;stroke-opacity:1;filter:url(#filter4202)"
       id="path5175"
       d="m 27.022765,1038 v -7.715 c -1.99594,-1.5134 -3.62694,-1.2477 -5.05645,0 v 7.6617 0"
       transform="matrix(0.55132453,0,0,0.46390692,-1.5073514,-465.44462)" />
    <path
       style="fill:none;stroke:#d59600;stroke-width:0.589919;stroke-linecap:round;stroke-linejoin:bevel;stroke-miterlimit:4;stroke-dasharray:none;stroke-opacity:1;filter:url(#filter4202)"
       id="path3843"
       d="m 27.705888,1042.6356 c -2.500686,-0.7183 -5.399343,-0.4589 -6.862512,-1.4699"
       transform="matrix(0.55132453,0,0,0.46390692,-1.5073514,-465.44462)" />
    <path
       style="fill:none;stroke:#d59600;stroke-width:0.589919;stroke-linecap:round;stroke-linejoin:bevel;stroke-miterlimit:4;stroke-dasharray:none;stroke-opacity:1;filter:url(#filter4202)"
       id="path3845"
       d="m 27.519667,1045.0565 c -2.500687,-0.7183 -5.399344,-0.4589 -6.862512,-1.4698"
       transform="matrix(0.55132453,0,0,0.46390692,-1.5073514,-465.44462)" />
    <path
       style="opacity:0.309735;fill:#ffffff;fill-opacity:0.585106;stroke:none;filter:url(#filter4202)"
       id="path3905"
       transform="matrix(0.37888773,0.40880577,-0.48584024,0.31881157,1.4359014,-15.081504)"
       d="m 44.642856,13.758928 a 4.107143,7.008929 0 1 1 -8.214286,0 4.107143,7.008929 0 1 1 8.214286,0 z" />
  </g>
  <metadata
     id="metadata3132">
    <rdf:RDF>
      <cc:Work>
        <dc:format>image/svg+xml</dc:format>
        <dc:type
           rdf:resource="http://purl.org/dc/dcmitype/StillImage" />
        <cc:license
           rdf:resource="http://creativecommons.org/publicdomain/zero/1.0/" />
        <dc:publisher>
          <cc:Agent
             rdf:about="http://openclipart.org/">
            <dc:title>Open Clip Art Library</dc:title>
          </cc:Agent>
        </dc:publisher>
        <dc:title></dc:title>
        <dc:date>2012-05-24T12:53:36</dc:date>
        <dc:description>This icon is a remake of the light bulb described in Ryan Henningsen's post &quot;How to Create a Vector Light Bulb Icon with Inkscape&quot;. &quot;http://vector.tutsplus.com/tutorials/illustration/how-to-create-a-vector-light-bulb-icon-with-inkscape/&quot;</dc:description>
        <dc:source>http://openclipart.org/detail/170185/light-bulb-by-ali.alnasir</dc:source>
        <dc:creator>
          <cc:Agent>
            <dc:title>ali.alnasir</dc:title>
          </cc:Agent>
        </dc:creator>
        <dc:subject>
          <rdf:Bag>
            <rdf:li>Light Bulb - Tungsten</rdf:li>
            <rdf:li>clip art</rdf:li>
            <rdf:li>clipart</rdf:li>
          </rdf:Bag>
        </dc:subject>
      </cc:Work>
      <cc:License
         rdf:about="http://creativecommons.org/publicdomain/zero/1.0/">
        <cc:permits
           rdf:resource="http://creativecommons.org/ns#Reproduction" />
        <cc:permits
           rdf:resource="http://creativecommons.org/ns#Distribution" />
        <cc:permits
           rdf:resource="http://creativecommons.org/ns#DerivativeWorks" />
      </cc:License>
    </rdf:RDF>
  </metadata>
</svg>
